<?xml version="1.0" encoding="utf-8"?>
<!-- Generator: Adobe Illustrator 16.0.0, SVG Export Plug-In . SVG Version: 6.00 Build 0)  -->
<!DOCTYPE svg PUBLIC "-//W3C//DTD SVG 1.1//EN" "http://www.w3.org/Graphics/SVG/1.1/DTD/svg11.dtd">
<svg version="1.1" id="Layer_1" xmlns="http://www.w3.org/2000/svg" xmlns:xlink="http://www.w3.org/1999/xlink" x="0px" y="0px"
	 width="24px" height="24px" viewBox="0 0 24 24" enable-background="new 0 0 24 24" xml:space="preserve">
<g>
	<rect x="18.382" y="1.015" fill="none" stroke="#FFFFFF" stroke-miterlimit="10" width="4.618" height="21.873"/>
	<line fill="none" stroke="#FFFFFF" stroke-miterlimit="10" x1="18.382" y1="3.45" x2="20.69" y2="3.45"/>
	<line fill="none" stroke="#FFFFFF" stroke-miterlimit="10" x1="18.382" y1="6.179" x2="21.656" y2="6.179"/>
	<line fill="none" stroke="#FFFFFF" stroke-miterlimit="10" x1="18.382" y1="9.223" x2="20.69" y2="9.223"/>
	<line fill="none" stroke="#FFFFFF" stroke-miterlimit="10" x1="18.382" y1="11.951" x2="21.656" y2="11.951"/>
</g>
<g>
	<rect x="1.127" y="18.27" fill="none" stroke="#FFFFFF" stroke-miterlimit="10" width="21.873" height="4.618"/>
	<line fill="none" stroke="#FFFFFF" stroke-miterlimit="10" x1="3.563" y1="18.27" x2="3.563" y2="20.578"/>
	<line fill="none" stroke="#FFFFFF" stroke-miterlimit="10" x1="6.291" y1="18.27" x2="6.291" y2="21.544"/>
	<line fill="none" stroke="#FFFFFF" stroke-miterlimit="10" x1="9.335" y1="18.27" x2="9.335" y2="20.578"/>
	<line fill="none" stroke="#FFFFFF" stroke-miterlimit="10" x1="12.063" y1="18.27" x2="12.063" y2="21.544"/>
</g>
<path fill="none" stroke="#FFFFFF" stroke-miterlimit="10" d="M12.927,7.096l0.923,1.001l2.19-2.002l-3.113-3.298l-2.548-0.855
	c-0.05,0.077-0.553,0.812-1.487,0.855C7.849,2.845,7.258,1.986,7.229,1.942L4.682,2.797L1.568,6.095l2.19,2.002l0.924-1.001v8.073
	h8.245V7.096z"/>
</svg>
