<?xml version="1.0" encoding="utf-8"?>
<!-- Generator: Adobe Illustrator 16.0.0, SVG Export Plug-In . SVG Version: 6.00 Build 0)  -->
<!DOCTYPE svg PUBLIC "-//W3C//DTD SVG 1.1//EN" "http://www.w3.org/Graphics/SVG/1.1/DTD/svg11.dtd">
<svg version="1.1" id="Layer_1" xmlns="http://www.w3.org/2000/svg" xmlns:xlink="http://www.w3.org/1999/xlink" x="0px" y="0px"
	 width="24px" height="24px" viewBox="0 0 24 24" enable-background="new 0 0 24 24" xml:space="preserve">
<g>
	<g>
		<path fill-rule="evenodd" clip-rule="evenodd" fill="#FFFFFF" d="M12.2,0.96c-5.939,0-10.755,4.815-10.755,10.755
			c0,2.032,0.564,3.934,1.543,5.553l-1.941,5.771l5.955-1.906c1.541,0.852,3.313,1.339,5.198,1.339
			c5.941,0,10.755-4.816,10.755-10.756C22.955,5.775,18.141,0.96,12.2,0.96z M12.2,20.669c-1.818,0-3.511-0.546-4.926-1.48
			l-3.44,1.103l1.118-3.326c-1.072-1.475-1.705-3.289-1.705-5.249c0-4.937,4.017-8.955,8.953-8.955c4.937,0,8.955,4.018,8.955,8.955
			C21.154,16.652,17.137,20.669,12.2,20.669z M17.242,14.16c-0.268-0.148-1.594-0.862-1.842-0.964
			c-0.248-0.101-0.43-0.153-0.623,0.115c-0.193,0.267-0.744,0.866-0.91,1.043c-0.166,0.177-0.326,0.193-0.596,0.046
			c-0.27-0.147-1.144-0.471-2.158-1.445c-0.79-0.758-1.306-1.678-1.456-1.958c-0.15-0.281-0.001-0.424,0.142-0.556
			c0.127-0.119,0.286-0.311,0.43-0.465c0.143-0.155,0.193-0.268,0.292-0.448c0.099-0.18,0.059-0.342-0.005-0.481
			c-0.064-0.139-0.562-1.511-0.77-2.069s-0.44-0.476-0.601-0.482C8.985,6.49,8.803,6.46,8.62,6.454
			c-0.183-0.007-0.483,0.05-0.745,0.315C7.613,7.034,6.878,7.672,6.828,9.023c-0.05,1.351,0.885,2.693,1.015,2.881
			c0.13,0.188,1.785,3.117,4.535,4.321c2.75,1.203,2.765,0.836,3.269,0.81c0.506-0.027,1.648-0.603,1.9-1.236
			c0.254-0.631,0.275-1.181,0.211-1.298C17.691,14.383,17.512,14.307,17.242,14.16z"/>
	</g>
</g>
</svg>
