<?xml version="1.0" encoding="utf-8"?>
<!-- Generator: Adobe Illustrator 16.0.0, SVG Export Plug-In . SVG Version: 6.00 Build 0)  -->
<!DOCTYPE svg PUBLIC "-//W3C//DTD SVG 1.1//EN" "http://www.w3.org/Graphics/SVG/1.1/DTD/svg11.dtd">
<svg version="1.1" id="Layer_1" xmlns="http://www.w3.org/2000/svg" xmlns:xlink="http://www.w3.org/1999/xlink" x="0px" y="0px"
	 width="24px" height="24px" viewBox="0 0 24 24" enable-background="new 0 0 24 24" xml:space="preserve">
<path fill="none" stroke="#FFFFFF" stroke-width="2" stroke-linecap="round" stroke-linejoin="round" d="M22,16.92v3
	c0.004,1.104-0.887,2.004-1.992,2.008c-0.063,0-0.125-0.002-0.188-0.008c-3.078-0.334-6.033-1.386-8.63-3.07
	c-2.416-1.535-4.465-3.584-6-6C3.5,10.241,2.448,7.271,2.12,4.18c-0.1-1.1,0.712-2.073,1.812-2.172C3.991,2.003,4.05,2,4.11,2h3
	c1.004-0.01,1.86,0.726,2,1.72c0.127,0.96,0.362,1.903,0.7,2.811c0.275,0.73,0.099,1.555-0.45,2.11L8.09,9.91
	c1.424,2.503,3.497,4.576,6,6l1.27-1.27c0.556-0.55,1.38-0.726,2.111-0.451c0.906,0.339,1.85,0.574,2.809,0.701
	C21.285,15.031,22.025,15.904,22,16.92z"/>
</svg>
