<svg width="626" height="610" viewBox="0 0 626 610" fill="none" xmlns="http://www.w3.org/2000/svg">
<path fill-rule="evenodd" clip-rule="evenodd" d="M313.063 7.41851C377.575 -12.1828 450.553 9.14479 506.385 46.9436C563.229 85.4269 601.225 147.38 618.087 213.922C634.251 277.707 624.846 345.642 597.211 405.358C571.698 460.486 521.643 496.829 471.378 530.937C422.746 563.936 371.121 589.037 313.063 598.166C245.737 608.753 172.017 622.762 113.911 587.145C54.3957 550.663 24.4757 479.895 9.04929 411.813C-5.42468 347.935 -5.50701 275.749 31.0369 221.395C64.7546 171.244 141.516 179.705 189.659 143.178C239.601 105.287 253.082 25.6432 313.063 7.41851Z" fill="#EE6F57"/>
</svg>
