<svg width="735" height="641" viewBox="0 0 735 641" fill="none" xmlns="http://www.w3.org/2000/svg">
<path fill-rule="evenodd" clip-rule="evenodd" d="M307.996 6.68472C387.729 -11.4245 471.831 8.90616 543.721 47.8418C623.063 90.8129 706.882 147.907 729.818 235.142C752.476 321.322 695.683 404.923 658.951 486.113C626.461 557.929 612.847 640.5 534 640.5C465.706 640.5 385 640.5 309.5 640.5C237.5 640.5 167 640.5 99 640.5C38.618 601.974 11.9283 541.563 6.03995 470.2C-1.38283e-05 397 5.579e-05 329.5 0 263C-5.94797e-05 192.102 82.7066 182.775 139.075 139.746C197.479 95.1619 236.333 22.9609 307.996 6.68472Z" fill="#EE6F57"/>
</svg>
