<svg width="574" height="665" viewBox="0 0 574 665" fill="none" xmlns="http://www.w3.org/2000/svg">
<path fill-rule="evenodd" clip-rule="evenodd" d="M347.844 6.01889C419.476 25.3502 444.722 111.465 489.131 170.901C518.791 210.597 549.983 247.606 563.889 295.168C577.443 341.531 574.815 388.872 566.782 436.503C557.363 492.348 550.887 550.869 513.575 593.474C470.79 642.329 407.111 657.47 342.5 664C274.5 664 214.535 664.802 155.844 629.632C92.2434 591.519 7.44948 552.076 0.358686 478.27C-6.92473 402.46 98.8497 364.533 123.45 292.456C147.386 222.322 91.9388 134.38 137.639 76.0438C184.327 16.4474 274.752 -13.7064 347.844 6.01889Z" fill="#EE6F57"/>
</svg>
